<svg xmlns="http://www.w3.org/2000/svg" width="221.859" height="222.406" viewBox="0 0 58.7 58.844"><path d="M29.8 1.777a26 26 0 0 0-5.033.385c-.994.118-2.025.294-3.055.512-.413.087-.667.16-.742.178l-.013.003c-.189.046-.656.122-1.381.346-2.052.618-3.94 1.562-5.574 2.471V5.67H14c-.023 0-.233.091-.665.329-1.899 1.044-3.424 2.337-4.73 3.555a28 28 0 0 0-.888.853c-.484.491-.99 1.012-1.511 1.63-.366.43-.657.813-.899 1.136-.791 1.054-1.5 1.905-2.082 3.586-2.24 4.254-3.374 8.92-3.21 13.738.032.968.153 2.262.367 4.389.06 3.304.914 6.496 2.587 9.246l.002.002c1.466 2.407 3.462 4.427 5.864 5.807q1.019.585 2.084 1.07h.003q1.063.483 2.172.865h.004c.552.19 1.116.34 1.682.49.271.79.64 1.613 1.178 2.422l.001.003v.003q.234.352.497.68l-.002-.005.004.005q.28.348.58.654a9 9 0 0 0 3.09 2.049v.001h.001c2.623 1.042 3.583.583 5.723.446 3.756-.237 7.074-.4 9.94-.492h.006c.366-.012.74-.04 1.165-.076.445-.038.942-.088 1.5-.15l-.001.002c1.448-.162 2.7-.714 3.72-1.416l.002-.002a9.2 9.2 0 0 0 1.623-1.43q.469-.524.854-1.104l.006-.007.001-.003a9.5 9.5 0 0 0 .688-1.226l.002-.002q.303-.646.506-1.35c.063-.218.088-.462.135-.691 3.095-1.162 5.955-2.84 8.16-5.3a17.4 17.4 0 0 0 2.38-3.384v-.002l.001-.004c1.102-2.053 1.806-4.377 2.058-6.857v-.004c.243-3.967.056-7.577-.657-11.351a33 33 0 0 0-.852-3.268c-.91-2.688-2.182-5.174-3.813-7.39a25.5 25.5 0 0 0-2.705-3.112 27 27 0 0 0-3.19-2.67c-5.322-3.801-11.39-5.413-17.58-5.559zM49.222 31.78v.004q-.116.592-.309 1.183.193-.593.31-1.187M14.102 49.34l.001.01h-.001v-.002z" style="baseline-shift:baseline;display:inline;overflow:visible;vector-effect:none;stroke-linejoin:round;stop-color:#000"/><path stroke="#7f581e" d="M7.159 18.527q-3.034 5.519-2.82 11.816.032.955.368 4.283" style="display:inline;fill:none;stroke-width:.26458" transform="translate(.304)"/><path stroke="#421513" d="M4.707 34.626q.029 4 1.915 7.1 1.667 2.737 4.215 4.2 3.32 1.908 7.194 2.47a.426.429.7 0 1 .36.37c.267 2.137.995 4.26 3.14 5.109q.797.317 3.726.13 5.69-.36 10.083-.5.749-.025 2.304-.2c1.83-.203 3.41-2.07 3.6-3.897q.107-.986.126-1.857a.286.283 81.4 0 1 .193-.262q.116-.04 1.749-.577c5.715-1.88 9.752-5.897 10.376-12.054q.1-.974-.22-1.876" style="display:inline;fill:none;stroke-width:.26458" transform="translate(.304)"/><path stroke="#804204" d="M53.469 32.782q.624-5.347-1.07-10.79" style="display:inline;fill:none;stroke-width:.26458" transform="translate(.304)"/><path stroke="#7f581e" d="M52.4 21.993q-2.307-6.816-8.012-10.888c-4.505-3.217-9.503-4.57-15.001-4.7q-2.075-.05-4.196.324" style="display:inline;fill:none;stroke-width:.26458" transform="translate(.304)"/><path stroke="#80691f" d="M25.19 6.729c-4.16.565-5.906 1.116-9.927 3.328-4.02 2.212-7.587 6.663-8.104 8.47" style="display:inline;fill:none;stroke-width:.26458" transform="translate(.304)"/><path stroke="#8f5112" d="M48.765 27.52q.73 2.736-.16 5.458" style="display:inline;fill:none;stroke-width:.26458" transform="translate(.304)"/><path stroke="#8f772d" d="M48.605 32.978q-1.12 2.91-3.195 4.456c-3.315 2.47-7.758 2.524-11.052.066q-1.682-1.254-2.796-3.154m-4.535-.363q-1.752 4.734-6.332 6.062a8.97 8.97 0 0 1-5.725-.246q-3.22-1.254-5.093-4.487" style="display:inline;fill:none;stroke-width:.26458" transform="translate(.304)"/><path stroke="#c15615" d="M53.469 32.782q-1.582 7.062-8.06 9.885-1.835.799-3.94 1.426a.22.22 0 0 0-.158.19q-.148 1.37-.28 2.197c-.341 2.119-1.86 3.563-4.04 3.69q-5.07.294-11.404.58c-2.455.114-4.751.582-6.312-1.707q-.892-1.31-.96-3.537" style="display:inline;fill:none;stroke-width:.26458" transform="translate(.304)"/><path stroke="#8f5112" d="M24.57 44.358c.102 1.844 1.454 2.508 3.089 2.68 1.762.185 5.286.116 6.5-1.257q.948-1.071.53-2.844c-.214-.92-1.093-1.5-1.868-2.024" style="display:inline;fill:none;stroke-width:.26458" transform="translate(.304)"/><path stroke="#fa2" d="M35.935 39.233q4.853 2.132 8.972-.651 1.167-.786 2.053-1.937.868-1.122 1.474-2.423.328-.707.172-1.244" style="display:inline;fill:none;stroke-width:.26458" transform="translate(.304)"/><path stroke="#8f772d" d="M18.298 21.845q-2.542.047-4.643 1.227" style="display:inline;fill:none;stroke-width:.26458" transform="translate(.304)"/><path stroke="#febf3c" d="M18.298 21.845q.506-.125 1.016-.416.7-.402.969-.524 4.315-1.947 7.57-5.458c1.944-2.098 4.407-6.276.642-7.964q-.944-.423-3.304-.754M9.877 35.312q.57 2.402 2.88 4.13c2.985 2.233 6.973 2.304 10.105.524q.686-.39.96-.683c.686-.725 1.47-1.26 2.054-2.122q.83-1.222 1.429-2.52.108-.237.052-.411-.071-.215-.33-.247" style="display:inline;fill:none;stroke-width:.26458" transform="translate(.304)"/><path stroke="#8e662c" d="M13.655 23.072q-4.472 2.702-4.68 7.74-.088 2.124.902 4.5" style="display:inline;fill:none;stroke-width:.26458" transform="translate(.304)"/><path stroke="#febf3c" d="M7.159 18.527q.196.812.3 1.712.118 1.03.489 1.42.83.873 2.016 1.178.495.127 1.836.13.924.002 1.855.105" style="display:inline;fill:none;stroke-width:.26458" transform="translate(.304)"/><path stroke="#c06b30" d="M18.315 45.506q-1.596-.53-3.237-1.008-2.405-.704-3.206-1.082-3.781-1.794-5.8-5.522-.198-.363-.672-1.638-.302-.812-.693-1.63" style="display:inline;fill:none;stroke-width:.26458" transform="translate(.304)"/><path stroke="#fe9921" d="M24.57 44.358q-1.11.246-2.147.58-2.188.703-4.11.568" style="display:inline;fill:none;stroke-width:.26458" transform="translate(.304)"/><path stroke="#8e662c" d="M32.82 40.913q-1.388-.942-2.436-1.262-.9-.27-1.466-.058-1.73.648-3.428 2.336-1.093 1.087-.92 2.429" style="display:inline;fill:none;stroke-width:.26458" transform="translate(.304)"/><path stroke="#fe9921" d="m35.935 39.233-3.114 1.68" style="display:inline;fill:none;stroke-width:.26458" transform="translate(.304)"/><path stroke="#febf3c" d="M31.562 34.346q.854 2.97 4.373 4.887" style="display:inline;fill:none;stroke-width:.26458" transform="translate(.304)"/><path stroke="#8e662c" d="M48.765 27.52q-1.175-3.477-3.855-5.218c-4.607-2.987-10.782-1.4-13.303 3.562q-1.966 3.865-.045 8.482" style="display:inline;fill:none;stroke-width:.26458" transform="translate(.304)"/><path stroke="#fe9921" d="m52.4 21.993-3.635 5.527" style="display:inline;fill:none;stroke-width:.26458" transform="translate(.304)"/><path stroke="#8e662c" d="M27.027 33.983q1.217-3.963-.754-7.402-2.572-4.49-7.975-4.736" style="display:inline;fill:none;stroke-width:.26458" transform="translate(.304)"/><path fill="#fdae3b" d="m52.4 21.993-3.635 5.527q-1.175-3.477-3.855-5.218c-4.607-2.987-10.782-1.4-13.303 3.562q-1.966 3.865-.045 8.482.854 2.97 4.373 4.887l-3.114 1.68q-1.39-.942-2.437-1.262-.9-.27-1.466-.058-1.73.648-3.428 2.336-1.093 1.087-.92 2.429-1.11.246-2.147.58-2.188.703-4.11.568-1.594-.53-3.235-1.008-2.405-.704-3.206-1.082-3.781-1.794-5.8-5.522-.198-.363-.672-1.638-.302-.812-.693-1.63-.336-3.328-.368-4.283-.214-6.297 2.82-11.816.196.812.3 1.712.118 1.03.489 1.42.83.873 2.016 1.178.495.127 1.836.13.924.002 1.855.105-4.472 2.702-4.68 7.74-.088 2.124.902 4.5.57 2.402 2.88 4.13c2.985 2.233 6.973 2.304 10.105.524q.686-.39.96-.683c.686-.725 1.47-1.26 2.054-2.122q.83-1.222 1.429-2.52.108-.237.052-.411-.071-.215-.33-.247 1.217-3.963-.754-7.402-2.572-4.49-7.975-4.736.506-.125 1.016-.416.7-.402.969-.524 4.315-1.947 7.57-5.458c1.944-2.098 4.407-6.276.642-7.964q-.944-.423-3.304-.754 2.12-.373 4.196-.323c5.498.13 10.496 1.482 15 4.7q5.706 4.07 8.013 10.887" style="display:inline;stroke-width:.26458" transform="translate(.304)"/><path fill="#ffd03d" d="M25.19 6.729q2.36.33 3.305.754c3.765 1.688 1.302 5.866-.643 7.964q-3.254 3.51-7.57 5.458-.267.122-.968.524-.51.29-1.016.416-2.542.047-4.643 1.227a17 17 0 0 0-1.855-.106q-1.341-.002-1.836-.13-1.185-.304-2.016-1.177-.37-.39-.49-1.42a14 14 0 0 0-.3-1.712c.439-1.36 2.712-4.688 6.53-7.434 1.315-.963 4.548-2.75 6.93-3.465 1.376-.437 3.25-.754 4.573-.9" style="display:inline;fill:#fedc5f;fill-opacity:1;stroke-width:.26458" transform="translate(.304)"/><path fill="#1e1e1d" d="M48.765 27.52q.73 2.736-.16 5.458-1.12 2.91-3.195 4.456c-3.315 2.47-7.758 2.524-11.052.066q-1.682-1.254-2.796-3.154-1.921-4.617.045-8.483c2.52-4.96 8.696-6.548 13.303-3.56q2.68 1.74 3.855 5.217m-30.467-5.675q5.403.246 7.975 4.736 1.97 3.44.754 7.402-1.752 4.734-6.332 6.062a8.97 8.97 0 0 1-5.725-.246q-3.22-1.254-5.093-4.487-.99-2.376-.903-4.5.21-5.038 4.68-7.74 2.102-1.18 4.644-1.227" style="display:inline;stroke-width:.26458" transform="translate(.304)"/><path fill="#ff8306" d="M53.469 32.782q-1.582 7.062-8.06 9.885-1.835.799-3.94 1.426a.22.22 0 0 0-.158.19q-.148 1.37-.28 2.197c-.341 2.119-1.86 3.563-4.04 3.69q-5.07.294-11.404.58c-2.455.114-4.751.582-6.312-1.707q-.892-1.31-.96-3.537 1.92.135 4.108-.57 1.037-.332 2.148-.58c.1 1.846 1.453 2.51 3.088 2.68 1.762.187 5.286.118 6.5-1.255q.948-1.071.53-2.844c-.214-.92-1.093-1.5-1.868-2.024l3.114-1.68q4.853 2.132 8.972-.651 1.167-.786 2.053-1.937.868-1.122 1.474-2.423.328-.707.172-1.244.889-2.722.159-5.458l3.635-5.527q1.693 5.442 1.069 10.79" style="display:inline;stroke-width:.26458" transform="translate(.304)"/><path fill="#832824" d="M53.469 32.782q.32.902.22 1.876c-.625 6.157-4.662 10.173-10.377 12.054l-1.75.577a.286.283 81.4 0 0-.192.262q-.02.87-.125 1.857c-.19 1.826-1.77 3.694-3.6 3.898q-1.556.174-2.305.198-4.392.14-10.083.5-2.93.188-3.726-.13c-2.145-.85-2.873-2.97-3.14-5.108a.426.429.7 0 0-.36-.37q-3.873-.562-7.194-2.47-2.548-1.463-4.215-4.2-1.886-3.1-1.915-7.1.39.818.693 1.63.474 1.275.672 1.638 2.019 3.728 5.8 5.522.8.378 3.206 1.082 1.64.479 3.236 1.008.069 2.228.96 3.537c1.562 2.289 3.858 1.82 6.313 1.707q6.334-.286 11.404-.58c2.18-.127 3.699-1.571 4.04-3.69q.132-.826.28-2.196a.22.22 0 0 1 .16-.19q2.103-.628 3.939-1.427 6.477-2.823 8.059-9.885" style="display:inline;stroke-width:.26458" transform="translate(.304)"/><path fill="#ffd03d" d="M36.241 39.235q-3.52-1.917-4.374-4.888 1.114 1.9 2.797 3.154c3.294 2.458 7.736 2.405 11.051-.067q2.075-1.545 3.196-4.455.157.537-.172 1.243-.605 1.302-1.473 2.424-.887 1.15-2.053 1.937-4.12 2.783-8.972.65"/><path fill="#ffd03d" d="M9.877 35.31q1.873 3.235 5.093 4.489a8.97 8.97 0 0 0 5.725.246q4.58-1.328 6.332-6.062.259.032.33.247.056.174-.052.412-.598 1.297-1.43 2.52c-.584.862-1.367 1.396-2.052 2.12q-.275.295-.96.684c-3.133 1.78-7.12 1.709-10.105-.524q-2.31-1.728-2.881-4.13" style="display:inline;stroke-width:.26458" transform="translate(.304)"/><path fill="#1e1e1d" d="M32.82 40.913c.776.524 1.655 1.103 1.869 2.024q.418 1.773-.53 2.844c-1.214 1.373-4.738 1.442-6.5 1.257-1.635-.172-2.987-.836-3.088-2.68q-.174-1.342.919-2.43 1.698-1.687 3.428-2.335.567-.212 1.466.058 1.048.32 2.437 1.262" style="display:inline;stroke-width:.26458" transform="translate(.304)"/><path fill="#fff" d="m21.038 2.517-.603 2.157a1.008 1.01 38 0 0 .092.77l.924 1.63q.505 1.063 1.15 2.026c.2.29.4.728.778.844 1.247.386 3.302.8 3.57 2.138.267 1.326-.744 2.672-2.167 2.693-.842.014-2.04-.518-2.83-.698a.339.35 38 0 0-.25.034q-2.19 1.194-4.03 2.294-.555.334-.666.73-.466 1.667-.755 2.276c-.957 2.043-4.008 1.468-4.06-.812-.017-.72.47-1.662.54-2.46a.997 1.01 38.8 0 0-.038-.37q-.455-1.525-1.326-2.946-.14-.381-.389-.794c-.307-.513-.545-1.077-1.03-1.294-.814-.36-2.343-.444-3.04-1.182-1.047-1.11-.68-3.17.906-3.56q.558-.137 1.68.136 1.024.246 2.072.463L16 4.089a.273.28 83.2 0 0 .132-.164l.813-2.643a.786.762 74.1 0 1 .14-.262q1.302-1.556 2.902-.738 1.225.627 1.05 2.235" style="display:inline;fill:#fff;fill-opacity:1;stroke-width:.264583"/></svg>