<svg xmlns="http://www.w3.org/2000/svg" xmlns:xlink="http://www.w3.org/1999/xlink" width="1019.301" height="311.163" viewBox="0 0 269.69 82.328"><defs><linearGradient xlink:href="#a" id="c" x1="473.327" x2="493.53" y1="236.971" y2="461.002" gradientTransform="translate(-211.92 4.762)scale(.26458)" gradientUnits="userSpaceOnUse"/><linearGradient id="a"><stop offset="0" style="stop-color:#45b54c;stop-opacity:1"/><stop offset=".5" style="stop-color:#45b54c;stop-opacity:1"/><stop offset="1" style="stop-color:#45ff4c;stop-opacity:1"/></linearGradient><linearGradient xlink:href="#b" id="d" x1="473.327" x2="521.815" y1="236.971" y2="461.002" gradientTransform="translate(-211.92 4.762)scale(.26458)" gradientUnits="userSpaceOnUse" spreadMethod="pad"/><linearGradient id="b"><stop offset="0" style="stop-color:#45d34c;stop-opacity:1"/><stop offset=".7" style="stop-color:#45c64c;stop-opacity:1"/><stop offset="1" style="stop-color:#45ff4c;stop-opacity:1"/></linearGradient></defs><path d="M53.207 2.646a6 6 0 0 0-.777.046L7.855 8.3a5.954 5.954 0 0 0-5.163 6.65l1.892 15.044a5.95 5.95 0 0 0 4.178 4.952l6.237 6.059-7.377 11.084a5.95 5.95 0 0 0-.95 4.041l1.535 12.207a5.954 5.954 0 0 0 5.179 5.166l7.722 5.262a5.3 5.3 0 0 0 3.641.877l42.393-5.334a5.3 5.3 0 0 0 3.51-1.994c3.878.269 8.82.618 12.282.886.731.725 1.603 1.353 2.658 1.772 2.515 1 3.618.593 5.875.441l10.944-.543c.776-.026 1.655-.109 2.828-.24 2.861-.32 4.966-1.776 6.256-3.823a5.3 5.3 0 0 0 3.963 1.767l14.936-.047a5.29 5.29 0 0 0 5.066-3.819c.871.171 1.995.343 3.336.446 1.102.085 2.379-.04 3.604-.248a5.29 5.29 0 0 0 5.02 3.564l14.937-.047a5.3 5.3 0 0 0 .974-.7 5.3 5.3 0 0 0 1.18.677c3.707.596 9.499 1.237 15.244 1.44 6.831.24 13.468.04 19.268-2.067 1.298-.472 2.54-1.16 3.726-1.942a5.3 5.3 0 0 0 .928 1.026c5.703 2.983 12.473 5.432 21.84 6.428 7.171.762 13.819.02 19.23-3.28a18.2 18.2 0 0 0 4.794-4.266 24.7 24.7 0 0 0 5.293-2.41c5.95-3.628 9.84-10.234 10.684-18.164.643-6.05-1.106-11.46-4.083-15.282a22 22 0 0 0-.884-1.046 6 6 0 0 0 1.418-1.97l4.763-14.022a5.954 5.954 0 0 0-3.366-7.419C257.22 6.89 249.814 4.63 241.61 3.757a44 44 0 0 0-5.668-.249c-6.457.147-12.453 1.861-17.13 5.566-2.923 2.315-5.2 5.405-6.675 8.987-2.003-2.623-4.63-4.7-7.417-6.01-5.936-2.794-12.693-3.587-18.985-3.809a92 92 0 0 0-2.376-.052c-5.524-.05-10.864.348-14.173.659a6 6 0 0 0-1.373.477 5.95 5.95 0 0 0-3.103-.914l-17.561.056a5.95 5.95 0 0 0-5.222 3.13l-2.773 5.146-2.773-5.11a5.95 5.95 0 0 0-5.252-3.115l-17.56.057a5.954 5.954 0 0 0-5.935 5.972l.008 2.56a34 34 0 0 0-2.058-.694l-3.57-1.701c-4.475-3.044-9.45-4.621-14.57-5.045h-.002a39 39 0 0 0-2.29-.121h-.005l-.047-.002h-.053a25.6 25.6 0 0 0-4.82.379c-1.19.134-2.591.34-4.01.695l.177-.637h-.001q.175-1.608-1.05-2.235-1.6-.817-2.902.738a.786.762 74.1 0 0-.14.262l-.813 2.644a.273.28 83.2 0 1-.132.163l-4.434 2.504a67 67 0 0 1-2.072-.463q-1.122-.273-1.68-.135a1.9 1.9 0 0 0-.838.443l-3.188-5.539-.064-.508a5.954 5.954 0 0 0-5.873-5.21m49.204 72.223.129-.006.103-.01z" style="display:inline;fill:#fff;fill-opacity:1;stroke:#fff;stroke-width:5.29167;stroke-linecap:round;stroke-linejoin:round;stroke-dasharray:none;paint-order:stroke fill markers"/><g style="display:inline"><path d="M-150.223 130.901s17.506 1.18 21.666 1.578c5.977.57 28.28-7.95 28.28-7.95l18.785 2.645s2.007.716 5.447.981 8.576-1.51 8.576-1.51l-1.587-12.435-86.254 1.322z" style="display:inline;fill:#000;fill-opacity:1;stroke:none;stroke-width:2.64583;stroke-linecap:round;-inkscape-stroke:none;paint-order:stroke fill markers" transform="translate(214.841 -59.002)"/><path d="M-129.793 72.874a21.2 21.2 0 0 0-4.196.322c-1.323.145-3.197.462-4.57.9q-.465.14-.963.328c-1.29.473-2.622 1.125-4.394 2.1-4.021 2.212-7.587 6.663-8.104 8.47q-3.035 5.52-2.82 11.817.03.954.367 4.283.03 4 1.916 7.099 1.667 2.738 4.215 4.202l4.536 4.466c1.196 1.912 2.692 3.39 4.494 4.424a21.7 21.7 0 0 0 4.75 2.023l2.858 2.748 1.47 1.413c.526 1.083 1.327 1.985 2.582 2.482q.868.346 4.061.141h.005l10.99-.545.023-.002c.545-.018 1.371-.089 2.49-.214 1.995-.223 3.717-2.259 3.925-4.25q.115-1.075.135-2.025l.211-.285 1.907-.63c6.231-2.05 10.633-6.429 11.314-13.141a4.6 4.6 0 0 0-.24-2.046q.681-5.83-1.165-11.764-2.516-7.431-8.735-11.871a26.5 26.5 0 0 0-8.388-3.997l-3.672-1.75c-3.942-2.815-8.262-4.201-12.963-4.59a35 35 0 0 0-2.038-.108z" style="display:inline;fill:#000;stroke:#000;stroke-width:8.65418;stroke-dasharray:none" transform="translate(214.841 -59.002)"/><path d="M49.868.704 5.292 6.309a5.29 5.29 0 0 0-4.59 5.912l1.892 15.041a5.3 5.3 0 0 0 1.565 3.135l8.678 8.43-7.309 10.982a5.3 5.3 0 0 0-.846 3.592L6.22 65.608a5.3 5.3 0 0 0 2.27 3.713l9.975 6.797a5.3 5.3 0 0 0 3.64.877l42.393-5.334a5.29 5.29 0 0 0 4.59-5.91L67.35 51.955a5.3 5.3 0 0 0-.992-2.483l-6.297-8.527a5.3 5.3 0 0 0-.969-.414l4.288-6.557a5.3 5.3 0 0 0 .822-3.557L62.51 16.985a5.3 5.3 0 0 0-.664-1.979L55.114 3.313a5.29 5.29 0 0 0-5.246-2.61m183.799.822a5.3 5.3 0 0 0-3.586 1.191l-15.334 12.551a21 21 0 0 0-7.153 4.87l-22-13.136a5.3 5.3 0 0 0-2.6-.748l-2.22-.047a5 5 0 0 0-.361.004l-13.56.631a5.3 5.3 0 0 0-1.96.744 5.3 5.3 0 0 0-2.824-1.158l-17.562.055a5.29 5.29 0 0 0-4.641 2.781l-3.354 6.227-3.357-6.188a5.29 5.29 0 0 0-4.668-2.767l-17.56.056a5.29 5.29 0 0 0-5.274 5.307l.143 45.31a5.3 5.3 0 0 0 .134 1.168l1.71 7.442a5.29 5.29 0 0 0 5.173 4.107l14.936-.047a5.29 5.29 0 0 0 5.275-5.308l-.014-4.301a5.3 5.3 0 0 0 2.995 1.652h.369a5.3 5.3 0 0 0 3.078-1.705l.014 4.332a5.29 5.29 0 0 0 5.308 5.274l14.938-.047a5.3 5.3 0 0 0 .974-.701 5.3 5.3 0 0 0 1.18.677c3.707.597 9.499 1.237 15.244 1.44 6.831.24 13.468.04 19.268-2.067 1.297-.471 2.54-1.16 3.726-1.941a5.3 5.3 0 0 0 .928 1.025c5.703 2.984 12.473 5.432 21.84 6.428 7.17.763 13.819.02 19.23-3.28 4.783-2.916 7.977-8.006 9.215-14.128l8.957-7.22a5.292 5.292 0 0 0 .387-7.897l-7.746-7.604 4.492-4.44a5.3 5.3 0 0 0 1.291-2.062l4.764-14.021a5.29 5.29 0 0 0-3.674-6.822L239.673 1.91a5.3 5.3 0 0 0-1.104-.168zM47.697 11.643l4.446 7.72 1.315 10.448-7.922 12.117a5.292 5.292 0 0 0 5.088 8.147l2.765-.348 3.635 4.922.902 7.172-35.158 4.424-6.347-4.327-.993-7.884 9.897-14.871a5.292 5.292 0 0 0-5.065-8.184l-.277.035-7.119-6.914-1-7.95zm187.522.547 2.323.101 14.07 3.674-2.533 7.453-7.424 7.338a5.29 5.29 0 0 0 .012 7.54l7.338 7.202-5.768 4.649a5.3 5.3 0 0 0-1.941 3.56c-.51 4.782-2.092 7.023-4.704 8.616s-6.888 2.398-12.601 1.79c-5.986-.636-10.13-1.96-13.92-3.548l.826-2.44c3.413 1.576 7.254 2.909 12.121 3.426 2.005.213 3.726.273 5.748-.523s4.093-3.424 4.32-5.557a5.292 5.292 0 0 0-6.896-5.594l-2.515.817-7.708-2.793a5.29 5.29 0 0 0-1.074-5.635c-2.111-1.911-3.32-3.735-2.789-8.383v-.006c.605-5.348 2.852-7.774 7.36-9.254a5.3 5.3 0 0 0 1.7-.931zm-54.484 4.601.635.014 18.402 10.986-3.254 5.211a5.29 5.29 0 0 0 .266 5.99l5.267 6.981-3.953 5.176a5.3 5.3 0 0 0-1.082 3.025c-.111 3.155-.91 3.79-4.254 5.004-1.974.717-4.888 1.088-8.13 1.29.804-.157 1.607-.3 2.492-.669 2.388-.996 5.356-3.999 5.482-7.627a5.292 5.292 0 0 0-7.883-4.797l-4.923 2.77-1.215-.068a5.292 5.292 0 0 0-1.229 10.492c.257.045.256.015.434.039-.11-.003-.197.01-.307.006-3.468-.123-6.333-.526-9.312-.875l1.255-35.654 1.801-6.85zm-23.924.237.125 39.135-1.035 3.04-5.87.02-.05-15.914a5.292 5.292 0 0 0-9.78-2.787l-4.027 6.445-4.03-6.404a5.292 5.292 0 0 0-9.77 2.834l.05 15.914-5.416.018-.63-2.745-.125-39.425 9.107-.03 6.518 12.01a5.292 5.292 0 0 0 9.308-.014l6.502-12.068zm67.5 10.03c-.7.262-1.453.971-2.166 1.679l-.062-.086-.305.369a8 8 0 0 0-.62.754l-.095.117-.02.06c-.582.863-1.055 1.794-1.156 2.737-.02.185.093.321.092.502a5.3 5.3 0 0 0 .18.994c.3 1.648 1.057 3.1 1.797 3.781.967.892 1.758 1.273 2.508 1.633a5.292 5.292 0 0 0 6.972-5.66l-1.18 1.435a5.3 5.3 0 0 0 .72-2.798 5.3 5.3 0 0 0-.514-1.524l.724.71a5.292 5.292 0 0 0-6.875-4.704m4.737 3.001c-.28-.135-.324-.249.082.125.405.374 1.468 1.878 1.28 3.63-.122 1.144-1.748 2.915-2.384 3.153l-1.932-2.7zM189.214 32a5.29 5.29 0 0 0-5.457.104l-5.471 3.435a5.292 5.292 0 0 0 2.629 9.77c.872.03 1.452-.039 1.781-.06a5.3 5.3 0 0 0 1.197-.817l.02.07 3.04-1.908-.675 1.426a5.3 5.3 0 0 0 2.459-.879c1.737-1.388 3.037-3.951 3.123-6.367A5.29 5.29 0 0 0 189.214 32m-7.63 3.854.23.85-.532-.307c.002-.06.214-.336.303-.543" style="font-size:300px;font-family:Bemio;-inkscape-font-specification:Bemio;letter-spacing:84px;baseline-shift:baseline;display:inline;overflow:visible;vector-effect:none;stroke-linejoin:round;paint-order:stroke fill markers;stop-color:#000" transform="translate(2.645 2.646)"/><path d="M50.528 5.953 5.953 11.56l1.892 15.042 10.275 9.98 2.8-.352L9.933 52.74l1.536 12.207 9.974 6.797 42.394-5.333-1.736-13.794-6.296-8.528-5.841.735 8.987-13.745-1.69-13.433zm182.905.86-15.619 12.783c-6.126 2.011-10.168 6.614-10.968 13.686-.697 6.1 1.406 10.11 4.497 12.908l-3.482 4.401-4.376 12.93c5.27 2.757 11.188 4.923 19.946 5.854 12.884 1.37 21.849-3.093 23.127-15.108l10.396-8.379-11.58-11.368 8.314-8.216 4.764-14.022-20.116-5.252zm-52.774 4.684-13.56.632-2.94 11.18-1.453 41.218c3.425.551 9.122 1.183 14.59 1.376 13.083.461 24.646-1.284 25.008-11.542l6.391-8.37-7.688-10.186 6.112-9.79-24.238-14.47zm-18.574.222-17.561.056-7.996 14.84-8.024-14.788-17.56.056.144 45.31 1.708 7.441 14.936-.047-.067-21.206 8.34 13.25h.369l8.316-13.305.068 21.206 14.936-.048 2.536-7.455zm64.084 20.293-1.02 1.24 1.607 1.577c-1.03-.495-1.67-.99-1.607-1.577.068-.637.436-1.021 1.02-1.24m-39.598 4.573c-.04 1.123-.48 1.897-1.138 2.423l-2.65.032-.44.928c-.419.028-.841.067-1.244.053zm24.805 15.28 12.203 4.423 4.245-1.378c-.108 1.014-1.133 1.71-4.246 1.379-5.23-.556-9.001-1.954-12.42-3.778zm-24.058.122c-.105 3.01-3.756 3.62-6.274 3.53-.614-.02-2.334-.082-2.762-.158l2.762.158z" style="font-size:300px;font-family:Bemio;-inkscape-font-specification:Bemio;letter-spacing:84px;baseline-shift:baseline;display:inline;overflow:visible;vector-effect:none;stroke-linejoin:round;paint-order:stroke fill markers;stop-color:#000" transform="translate(2.645 2.646)"/><path d="m-161.668 67.601-44.575 5.607 1.892 15.042 21.264-2.675-19.176 28.813 1.536 12.207 46.229-5.816-1.893-15.042-20.476 2.576 17.042-26.064zm182.905.86c-10.982.25-18.606 5.77-19.784 16.19-2.306 20.19 23.295 19.64 22.876 23.586-.118 1.105-1.236 1.864-4.63 1.504-7.577-.806-12.349-3.23-17.14-6.214l-4.772 14.1c5.747 3.007 12.2 5.369 21.751 6.384 14.05 1.494 23.827-3.373 25.22-16.475C46.764 88.672 21 88.486 21.412 84.619c.168-1.579 1.947-1.789 4.63-1.503 6.236.663 12.145 2.888 15.45 4.836l4.764-14.022c-5.735-2.366-12.617-4.454-20.116-5.252a38 38 0 0 0-4.903-.216zm-52.774 4.684c-5.195-.049-10.38.333-13.56.632l-1.585 44.947c3.735.602 9.948 1.29 15.91 1.5 14.268.504 26.877-1.399 27.271-12.586.232-6.564-5.083-9.904-8.01-10.61 3.34-1.493 6.26-4.408 6.434-9.365.39-11.052-12.516-14.056-24.238-14.47a86 86 0 0 0-2.222-.048zm-18.574.222-17.561.056-7.996 14.84-8.024-14.788-17.56.056.144 45.31 16.288-.052-.074-23.124 9.095 14.449.402-.001 9.07-14.508.073 23.125 16.288-.053zm23.956 11.004c2.479.087 5.601.936 5.497 3.883-.115 3.282-3.354 3.839-5.967 3.747-.603-.022-1.876-.067-2.476-.155l.262-7.435a38 38 0 0 1 2.684-.04zm-.44 16.283c2.747.097 6.88.779 6.753 4.396-.115 3.282-4.096 3.947-6.842 3.85-.67-.024-2.546-.09-3.012-.173l.283-8.039a42 42 0 0 1 2.818-.034z" style="font-size:300px;font-family:Bemio;-inkscape-font-specification:Bemio;letter-spacing:84px;display:inline;fill:#000;fill-rule:nonzero;stroke:#000;stroke-width:11.9062;stroke-linejoin:round;stroke-dasharray:none;paint-order:stroke fill markers" transform="translate(214.841 -59.002)"/><path d="m-205.06 74.126 1.627 12.942 20.214-2.543c.204.073.435.096.58.274.196.159.39.335.45.59.102.327.093.72-.157.982l-18.818 28.274 1.354 10.768 44.13-5.552-1.628-12.941-19.426 2.443c-.212-.072-.446-.103-.594-.286-.205-.158-.386-.348-.45-.606-.08-.31-.085-.675.149-.924l16.705-25.55-1.661-13.214zM21.26 69.52a29 29 0 0 0-4.286.406c-1.693.293-3.36.76-4.938 1.445-.187.083-.447.2-.659.303-2.817 1.336-5.252 3.516-6.765 6.254-.973 1.723-1.598 3.673-1.93 5.591-.417 2.497-.474 5.09.146 7.558.074.293.174.649.277.96.714 2.213 2.058 4.194 3.76 5.767 2.295 2.14 5.131 3.588 8.019 4.752 2.266.921 4.61 1.629 6.904 2.476.924.363 1.87.734 2.66 1.352.595.46 1.025 1.2.931 1.97-.081.962-.781 1.806-1.677 2.135-1.16.475-2.448.433-3.675.341a39.3 39.3 0 0 1-6.377-1.104c-2.892-.755-5.676-1.897-8.296-3.333a56 56 0 0 1-2.217-1.271l-4.055 11.981a56 56 0 0 0 3.523 1.64c3.67 1.562 7.52 2.68 11.44 3.405 1.042.194 2.149.373 3.2.517a59 59 0 0 0 4.805.486c.93.05 1.838.073 2.776.057.292-.004.614-.017.89-.026 3.245-.14 6.526-.73 9.45-2.19 2.6-1.278 4.824-3.334 6.235-5.871 1.48-2.62 2.17-5.619 2.38-8.6.15-2.5-.248-5.072-1.417-7.306-1.241-2.407-3.26-4.328-5.506-5.798a27 27 0 0 0-2.222-1.305c-1.98-1.045-4.077-1.879-6.167-2.636-1.695-.623-3.42-1.167-5.089-1.86-.901-.404-1.86-.809-2.517-1.575a2.09 2.09 0 0 1-.467-1.796c.158-.879.812-1.622 1.64-1.94 1.103-.436 2.318-.374 3.48-.302 3.278.297 6.515 1.005 9.641 2.03 1.966.656 3.898 1.428 5.74 2.38l4.035-11.876c-4.516-1.801-9.243-3.213-14.044-4.098a61 61 0 0 0-6.097-.82c-.153-.01-.397-.029-.56-.038a37 37 0 0 0-2.972-.06zm-54.725 4.684q-1.222.017-2.443.051c-2.173.07-4.407.192-6.579.363q-.792.061-1.586.13l-1.519 43.072c3.128.462 6.287.792 9.447 1.037a139 139 0 0 0 3.418.222c4.356.213 8.761.269 13.12-.192 2.852-.32 5.717-.853 8.368-1.988 1.966-.849 3.833-2.1 5.045-3.898.925-1.355 1.433-2.962 1.583-4.588.192-1.862-.074-3.803-.969-5.463-1.17-2.204-3.235-3.88-5.573-4.716-.218-.088-.466-.112-.67-.218-.156-.13-.333-.242-.397-.445-.122-.212-.221-.445-.167-.694.059-.277.139-.597.392-.765.252-.176.559-.267.823-.427 1.778-.945 3.325-2.402 4.17-4.25.859-1.87 1.045-4.002.738-6.023a9.2 9.2 0 0 0-2.343-4.846c-1.639-1.79-3.824-2.972-6.067-3.834-2.498-.944-5.123-1.509-7.76-1.892a52 52 0 0 0-1.376-.178 66 66 0 0 0-4.827-.38 91 91 0 0 0-4.828-.078zm-33.575.276-7.697 14.285c-.182.131-.344.3-.58.317-.31.096-.657.132-.947-.044-.364-.15-.467-.555-.655-.862l-7.4-13.641-15.872.051.138 43.194 14.171-.046-.07-22.066c.1-.175.119-.426.342-.489.35-.113.706-.247 1.069-.306.187.053.42.022.53.214 2.81 4.447 5.606 8.904 8.41 13.355l8.376-13.398c.179-.095.328-.297.55-.23.353.088.722.166 1.058.304.133.142.35.237.342.459.023 3.358.024 6.72.038 10.08l.038 12.011 14.172-.046-.14-43.193zm40.315 8.824c1.763.002 3.598.26 5.123 1.2 1.05.658 1.841 1.773 1.965 3.022.193 1.498-.306 3.132-1.494 4.109-1.168.984-2.725 1.328-4.216 1.41-1.23.06-2.46-.03-3.686-.122-.364-.044-.74-.217-.95-.524-.266-.446-.136-.983-.145-1.474.084-2.192.146-4.387.24-6.577.098-.376.287-.798.697-.913.485-.157 1.003-.087 1.504-.121.32-.008.641-.007.962-.01zm-.456 16.282c1.954.022 3.967.23 5.74 1.11 1.151.582 2.143 1.588 2.477 2.86.426 1.488.126 3.224-.965 4.36-1.038 1.106-2.535 1.626-3.997 1.873-1.704.292-3.437.15-5.152.06-.395-.039-.825-.017-1.16-.265-.302-.146-.477-.46-.497-.788-.04-.449.028-.9.025-1.35l.24-6.795c.1-.384.286-.822.706-.939.484-.158 1.002-.084 1.501-.118.36-.008.721-.006 1.082-.008z" style="font-size:300px;font-family:Bemio;-inkscape-font-specification:Bemio;letter-spacing:84px;display:inline;mix-blend-mode:normal;fill:url(#c);fill-opacity:1;fill-rule:nonzero;stroke:url(#d);stroke-width:3.96875;stroke-linecap:butt;stroke-linejoin:miter;stroke-miterlimit:4;stroke-dasharray:none;paint-order:normal" transform="translate(214.841 -59.002)"/><path d="m19.982 67.845-4.584.365 3.193 9.383zm-213.308 3.082-3.796.295 1.714 6.187s1.42-4.45 2.082-6.482m236.884.086-3.366 19.02 2.947-.472 6.747-16.404zm-78.839 1.575-3.77.064 1.305 8.696zm-19.594.241-.034 9.046 2.371-8.981zm-38.538.19-4.315.04 3.404 8.6zm22.838 4.896-1.846 3.075s3.18 2.055 3.271 2.104c.052.028.078.026.07-.032a934 934 0 0 0-1.495-5.147m-112.509 7.509-21.99 2.524.075.812 20.956-2.621-1.773 2.41-.49 1.205s2.76-3.268 3.357-4.105a.143.143 0 0 0-.135-.225m81.322 6.92-.822.073.288 26.972 18.322.088-.07-1.946-16.527-1.828a.206.206 0 0 1-.183-.2zm51.949 1.19c-.094 2.406-.682 22.07-.682 22.07s.026.133-.17.203c-.313.02-16.436 1.584-16.436 1.584l-.108 2.007 18.832.335-.476-26.175zm-16.33 1.756a.105.105 0 0 0-.122.046l-8.976 13.625a.254.254 0 0 1-.427-.003L-84.9 95.562a.085.085 0 0 0-.153.048c-.004 1.359.489 8.45.489 8.45l.86-3.669 8.185 11.713 8.084-11.332.685 3.342.683-8.72a.104.104 0 0 0-.076-.104m60.85 5.234c-1.425 1.238-2.759 3.037-2.983 3.329q-.037.05-.01.114.047.108.158.066c1.15-.426 3.169-.682 4.275-.673zm-150.491 4.538-2.788.314c.532 1.732 1.583 4.242 2.525 5.81q.17.283.212 1.882.08 2.927.029 7.277a.135.135 0 0 1-.138.133 10 10 0 0 0-1.267.029 824 824 0 0 0-39.844 4.616.366.366 0 0 1-.405-.273l-3.12-15.166-3.217 2.58 2.428 15.217 47.851-6.16zm-6.422.573-4.742.679 3.7 5.961zm194.09 10.69a.1.1 0 0 0-.038.113l2.266 6.904 4.147-2.305-6.256-4.71a.1.1 0 0 0-.12-.003z" style="display:inline;fill:#000;fill-opacity:1;stroke-width:.265112" transform="translate(214.841 -59.002)"/><path d="m15.398 68.21-5.01 1.636 8.203 7.747zm-198.89 1.037-9.834 1.68-2.082 6.482zm148.211 3.341-2.465 8.76 4.73-8.883zm-17.257.306-2.37 8.981 4.353-9.153zm-40.875.126-.91 8.64 4.292-8.61zm-65.16 32.356-3.633.26-1.041 6.64z" style="display:inline;fill:#45fa4c;fill-opacity:1;stroke:none;stroke-width:5.29167;stroke-linecap:butt;stroke-linejoin:miter;stroke-dasharray:none;stroke-opacity:1;paint-order:stroke fill markers" transform="translate(214.841 -59.002)"/><path d="m-162.41 61.694-44.576 5.607a5.954 5.954 0 0 0-5.163 6.65l1.892 15.043a5.954 5.954 0 0 0 6.65 5.163l8.357-1.052-11.969 17.985a5.95 5.95 0 0 0-.95 4.041l1.535 12.207a5.954 5.954 0 0 0 6.65 5.164l46.23-5.816a5.954 5.954 0 0 0 5.163-6.65l-1.893-15.042a5.954 5.954 0 0 0-6.65-5.163l-7.708.97 10-15.294a5.95 5.95 0 0 0 .923-4l-1.842-14.649a5.954 5.954 0 0 0-6.65-5.164m183.512.816c-6.457.147-12.453 1.861-17.13 5.566-2.923 2.315-5.2 5.405-6.675 8.987-2.003-2.623-4.631-4.7-7.417-6.011-5.936-2.793-12.693-3.586-18.985-3.808a92 92 0 0 0-2.376-.052c-5.524-.051-10.864.347-14.173.658a6 6 0 0 0-1.373.477 5.95 5.95 0 0 0-3.103-.913l-17.561.056a5.95 5.95 0 0 0-5.222 3.13l-2.773 5.146-2.773-5.11a5.95 5.95 0 0 0-5.252-3.115l-17.56.057a5.954 5.954 0 0 0-5.935 5.972l.145 45.31a5.954 5.954 0 0 0 5.972 5.934l16.288-.052a5.954 5.954 0 0 0 5.934-5.972l-.011-3.638a5.95 5.95 0 0 0 3.095.935l.402-.001a5.95 5.95 0 0 0 3.162-1.021l.012 3.704a5.954 5.954 0 0 0 5.972 5.934l16.288-.052a6 6 0 0 0 1.71-.287 6 6 0 0 0 .609.258c4.053.653 10.372 1.351 16.646 1.572 7.46.263 14.713.05 21.08-2.263 1.334-.485 2.622-1.161 3.854-1.947a6 6 0 0 0 1.076.94c6.234 3.26 13.646 5.94 23.88 7.028 7.846.834 15.137.027 21.086-3.602 5.95-3.628 9.84-10.234 10.684-18.164.643-6.05-1.106-11.46-4.083-15.283a22 22 0 0 0-.884-1.045 6 6 0 0 0 1.418-1.971l4.763-14.021a5.954 5.954 0 0 0-3.366-7.419c-6.145-2.535-13.552-4.796-21.756-5.668a44 44 0 0 0-5.668-.249m-182.77 5.091 1.843 14.648-17.042 26.064 20.477-2.576 1.892 15.042-46.23 5.816-1.535-12.207 19.176-28.813-21.264 2.675-1.892-15.042zm182.905.861a38 38 0 0 1 4.904.217c7.498.797 14.38 2.885 20.115 5.251l-4.763 14.022c-3.305-1.948-9.215-4.173-15.45-4.836-2.684-.285-4.463-.075-4.63 1.503-.412 3.868 25.35 4.053 23.345 22.917-1.393 13.102-11.17 17.97-25.22 16.476-9.55-1.016-16.004-3.378-21.75-6.384l4.771-14.1c4.791 2.984 9.563 5.407 17.14 6.213 3.394.36 4.512-.399 4.63-1.504.42-3.946-25.182-3.396-22.876-23.585 1.178-10.422 8.802-15.94 19.784-16.19m-52.774 4.683q1.115.01 2.222.049c11.723.413 24.628 3.417 24.238 14.47-.174 4.956-3.094 7.871-6.433 9.363 2.926.707 8.24 4.047 8.01 10.611-.395 11.187-13.004 13.09-27.272 12.587-5.962-.21-12.175-.9-15.91-1.5l1.585-44.948c3.18-.299 8.365-.68 13.56-.632m-18.574.222.145 45.31-16.288.053-.074-23.124-9.069 14.507h-.402l-9.095-14.448.074 23.124-16.288.052-.145-45.31 17.561-.056 8.024 14.787 7.996-14.839zm23.957 11.004a38 38 0 0 0-2.685.04l-.262 7.435c.6.088 1.873.133 2.476.155 2.613.092 5.852-.465 5.967-3.747.104-2.947-3.018-3.795-5.496-3.883m-.41 3.592.198.237-.16.165c-.029-.109-.084-.239-.081-.32 0-.012.04-.067.044-.082m-.03 12.69a41 41 0 0 0-2.819.035l-.283 8.039c.466.083 2.342.15 3.012.173 2.746.097 6.727-.568 6.842-3.85.128-3.617-4.006-4.3-6.753-4.396" style="color:#000;-inkscape-font-specification:Bemio;display:inline;fill:#000;stroke-width:.264583;stroke-linejoin:round;-inkscape-stroke:none;paint-order:stroke fill markers" transform="translate(214.841 -59.002)"/><path stroke="#7f581e" d="M60.174 23.346q-3.034 5.519-2.82 11.816.032.955.368 4.283" style="display:inline;fill:none;stroke-width:.26458" transform="translate(2.645 2.646)"/><path stroke="#421513" d="M57.722 39.445q.029 4 1.915 7.1 1.667 2.737 4.215 4.2 3.32 1.908 7.194 2.47a.426.429.7 0 1 .36.37c.267 2.137.995 4.26 3.14 5.109q.797.317 3.726.13 5.69-.36 10.083-.5.749-.025 2.304-.2c1.831-.203 3.41-2.07 3.601-3.897q.106-.986.125-1.857a.286.283 81.4 0 1 .193-.262q.116-.04 1.749-.577c5.715-1.88 9.752-5.897 10.376-12.054q.101-.974-.22-1.876" style="display:inline;fill:none;stroke-width:.26458" transform="translate(2.645 2.646)"/><path stroke="#804204" d="M106.484 37.601q.624-5.347-1.069-10.79" style="display:inline;fill:none;stroke-width:.26458" transform="translate(2.645 2.646)"/><path stroke="#7f581e" d="M105.415 26.812q-2.307-6.816-8.012-10.888c-4.505-3.217-9.503-4.57-15.001-4.699q-2.075-.05-4.196.323" style="display:inline;fill:none;stroke-width:.26458" transform="translate(2.645 2.646)"/><path stroke="#80691f" d="M78.206 11.548c-4.16.565-5.907 1.116-9.928 3.328-4.02 2.212-7.587 6.663-8.104 8.47" style="display:inline;fill:none;stroke-width:.26458" transform="translate(2.645 2.646)"/><path stroke="#8f5112" d="M101.78 32.339q.73 2.736-.16 5.458" style="display:inline;fill:none;stroke-width:.26458" transform="translate(2.645 2.646)"/><path stroke="#8f772d" d="M101.62 37.797q-1.12 2.91-3.195 4.456c-3.315 2.47-7.758 2.524-11.052.066q-1.682-1.254-2.796-3.154m-4.535-.363q-1.752 4.734-6.332 6.062a8.97 8.97 0 0 1-5.725-.246q-3.22-1.254-5.093-4.487" style="display:inline;fill:none;stroke-width:.26458" transform="translate(2.645 2.646)"/><path stroke="#c15615" d="M106.484 37.601q-1.582 7.062-8.06 9.885-1.835.799-3.939 1.426a.22.22 0 0 0-.159.19q-.148 1.371-.28 2.197c-.341 2.119-1.86 3.563-4.04 3.69q-5.07.294-11.404.58c-2.455.114-4.751.582-6.312-1.707q-.892-1.31-.96-3.537" style="display:inline;fill:none;stroke-width:.26458" transform="translate(2.645 2.646)"/><path stroke="#8f5112" d="M77.586 49.177c.101 1.844 1.453 2.508 3.088 2.68 1.762.185 5.286.116 6.5-1.257q.948-1.071.53-2.844c-.214-.92-1.093-1.5-1.868-2.024" style="display:inline;fill:none;stroke-width:.26458" transform="translate(2.645 2.646)"/><path stroke="#fa2" d="M88.95 44.052q4.853 2.132 8.972-.651 1.167-.786 2.053-1.937.868-1.122 1.474-2.423.328-.707.172-1.244" style="display:inline;fill:none;stroke-width:.26458" transform="translate(2.645 2.646)"/><path stroke="#8f772d" d="M71.313 26.664q-2.542.047-4.643 1.227" style="display:inline;fill:none;stroke-width:.26458" transform="translate(2.645 2.646)"/><path stroke="#febf3c" d="M71.313 26.664q.506-.125 1.016-.416.701-.402.969-.524 4.315-1.947 7.57-5.458c1.944-2.098 4.407-6.276.642-7.964q-.944-.423-3.304-.754M62.892 40.131q.571 2.402 2.88 4.13c2.985 2.233 6.973 2.304 10.105.524q.686-.39.96-.683c.686-.725 1.47-1.26 2.054-2.122q.83-1.222 1.429-2.519.108-.238.052-.412-.071-.215-.33-.247" style="display:inline;fill:none;stroke-width:.26458" transform="translate(2.645 2.646)"/><path stroke="#8e662c" d="M66.67 27.891q-4.472 2.702-4.68 7.74-.088 2.124.902 4.5" style="display:inline;fill:none;stroke-width:.26458" transform="translate(2.645 2.646)"/><path stroke="#febf3c" d="M60.174 23.346q.196.812.3 1.712.118 1.031.489 1.42.83.873 2.016 1.178.495.127 1.836.13.924.002 1.855.105" style="display:inline;fill:none;stroke-width:.26458" transform="translate(2.645 2.646)"/><path stroke="#c06b30" d="M71.33 50.325q-1.596-.53-3.237-1.008-2.405-.704-3.206-1.082-3.781-1.794-5.8-5.522-.198-.363-.672-1.638-.302-.812-.693-1.63" style="display:inline;fill:none;stroke-width:.26458" transform="translate(2.645 2.646)"/><path stroke="#fe9921" d="M77.586 49.177q-1.11.246-2.148.58-2.188.703-4.109.568" style="display:inline;fill:none;stroke-width:.26458" transform="translate(2.645 2.646)"/><path stroke="#8e662c" d="M85.836 45.732q-1.389-.942-2.437-1.262-.9-.27-1.466-.058-1.73.648-3.428 2.336-1.093 1.087-.919 2.429" style="display:inline;fill:none;stroke-width:.26458" transform="translate(2.645 2.646)"/><path stroke="#fe9921" d="m88.95 44.052-3.114 1.68" style="display:inline;fill:none;stroke-width:.26458" transform="translate(2.645 2.646)"/><path stroke="#febf3c" d="M84.577 39.165q.854 2.971 4.373 4.887" style="display:inline;fill:none;stroke-width:.26458" transform="translate(2.645 2.646)"/><path stroke="#8e662c" d="M101.78 32.339q-1.175-3.477-3.855-5.218c-4.607-2.987-10.782-1.4-13.303 3.562q-1.966 3.865-.045 8.482" style="display:inline;fill:none;stroke-width:.26458" transform="translate(2.645 2.646)"/><path stroke="#fe9921" d="m105.415 26.812-3.635 5.527" style="display:inline;fill:none;stroke-width:.26458" transform="translate(2.645 2.646)"/><path stroke="#8e662c" d="M80.042 38.802q1.217-3.963-.754-7.402-2.572-4.49-7.975-4.736" style="display:inline;fill:none;stroke-width:.26458" transform="translate(2.645 2.646)"/><path fill="#fdae3b" d="m105.415 26.812-3.635 5.527q-1.175-3.477-3.855-5.218c-4.607-2.987-10.782-1.4-13.303 3.562q-1.966 3.865-.045 8.482.854 2.971 4.373 4.887l-3.114 1.68q-1.389-.942-2.437-1.262-.9-.27-1.466-.058-1.73.648-3.428 2.336-1.093 1.087-.919 2.429-1.11.246-2.148.58-2.188.703-4.109.568-1.595-.53-3.236-1.008-2.405-.704-3.206-1.082-3.781-1.794-5.8-5.522-.198-.363-.672-1.638-.302-.812-.693-1.63-.336-3.328-.368-4.283-.214-6.297 2.82-11.816.196.812.3 1.712.118 1.031.489 1.42.83.873 2.016 1.178.495.127 1.836.13.924.002 1.855.105-4.472 2.702-4.68 7.74-.088 2.124.902 4.5.571 2.402 2.88 4.13c2.985 2.233 6.973 2.304 10.105.524q.686-.39.96-.683c.686-.725 1.47-1.26 2.054-2.122q.83-1.222 1.429-2.519.108-.238.052-.412-.071-.215-.33-.247 1.217-3.963-.754-7.402-2.572-4.49-7.975-4.736.506-.125 1.016-.416.701-.402.969-.524 4.315-1.947 7.57-5.458c1.944-2.098 4.407-6.276.642-7.964q-.944-.423-3.304-.754 2.121-.373 4.196-.323c5.498.13 10.496 1.482 15.001 4.7q5.705 4.071 8.012 10.887" style="display:inline;stroke-width:.26458" transform="translate(2.645 2.646)"/><path fill="#ffd03d" d="M78.206 11.548q2.36.33 3.304.754c3.765 1.688 1.302 5.866-.643 7.964q-3.254 3.511-7.57 5.458-.267.122-.968.524-.51.291-1.016.416-2.542.047-4.643 1.227a17 17 0 0 0-1.855-.106q-1.341-.002-1.836-.13-1.185-.304-2.016-1.177-.37-.389-.49-1.42a14 14 0 0 0-.299-1.712c.438-1.36 2.711-4.688 6.53-7.434 1.314-.963 4.547-2.75 6.93-3.465 1.375-.437 3.249-.754 4.572-.899" style="display:inline;fill:#fedc5f;fill-opacity:1;stroke-width:.26458" transform="translate(2.645 2.646)"/><path fill="#1e1e1d" d="M101.78 32.339q.73 2.736-.16 5.458-1.12 2.91-3.195 4.456c-3.315 2.47-7.758 2.524-11.052.066q-1.682-1.254-2.796-3.154-1.921-4.617.045-8.483c2.521-4.96 8.696-6.548 13.303-3.56q2.68 1.74 3.855 5.217m-30.467-5.675q5.403.246 7.975 4.736 1.97 3.44.754 7.402-1.752 4.734-6.332 6.062a8.97 8.97 0 0 1-5.725-.246q-3.22-1.254-5.093-4.487-.99-2.376-.903-4.5.21-5.038 4.68-7.74 2.102-1.18 4.644-1.227" style="display:inline;stroke-width:.26458" transform="translate(2.645 2.646)"/><path fill="#ff8306" d="M106.484 37.601q-1.582 7.062-8.06 9.885-1.835.799-3.939 1.426a.22.22 0 0 0-.159.19q-.148 1.371-.28 2.197c-.341 2.119-1.86 3.563-4.04 3.69q-5.07.294-11.404.58c-2.455.114-4.751.582-6.312-1.707q-.892-1.31-.96-3.537 1.92.135 4.108-.569 1.037-.333 2.148-.58c.101 1.845 1.453 2.509 3.088 2.68 1.762.186 5.286.117 6.5-1.256q.948-1.071.53-2.844c-.214-.92-1.093-1.5-1.868-2.024l3.114-1.68q4.853 2.132 8.972-.651 1.167-.786 2.053-1.937.868-1.122 1.474-2.423.328-.707.172-1.244.889-2.722.159-5.458l3.635-5.527q1.693 5.442 1.069 10.79" style="display:inline;stroke-width:.26458" transform="translate(2.645 2.646)"/><path fill="#832824" d="M106.484 37.601q.32.902.22 1.876c-.625 6.157-4.662 10.173-10.377 12.054l-1.75.577a.286.283 81.4 0 0-.192.262q-.019.87-.125 1.857c-.19 1.826-1.77 3.694-3.6 3.898q-1.556.174-2.305.198-4.392.14-10.083.5-2.93.188-3.726-.13c-2.145-.849-2.873-2.97-3.14-5.108a.426.429.7 0 0-.36-.37q-3.873-.562-7.194-2.47-2.548-1.463-4.215-4.2-1.886-3.1-1.915-7.1.391.818.693 1.63.474 1.275.672 1.638 2.019 3.728 5.8 5.522.801.378 3.206 1.082 1.64.479 3.236 1.008.069 2.228.96 3.537c1.562 2.289 3.858 1.82 6.313 1.707q6.334-.286 11.404-.58c2.18-.127 3.699-1.571 4.04-3.69q.132-.826.28-2.196a.22.22 0 0 1 .16-.19q2.103-.628 3.939-1.427 6.477-2.823 8.059-9.885" style="display:inline;stroke-width:.26458" transform="translate(2.645 2.646)"/><path fill="#ffd03d" d="M91.597 46.7q-3.52-1.917-4.374-4.888 1.114 1.9 2.797 3.154c3.294 2.458 7.736 2.405 11.051-.067q2.075-1.545 3.196-4.455.157.537-.172 1.243-.605 1.302-1.473 2.424-.887 1.15-2.053 1.937-4.12 2.783-8.972.65"/><path fill="#ffd03d" d="M62.892 40.13q1.873 3.234 5.093 4.488a8.97 8.97 0 0 0 5.725.246q4.58-1.328 6.332-6.062.259.032.33.247.056.174-.052.412-.598 1.297-1.43 2.52c-.584.862-1.367 1.396-2.052 2.121q-.275.294-.96.683c-3.133 1.78-7.12 1.709-10.105-.524q-2.31-1.728-2.881-4.13" style="display:inline;stroke-width:.26458" transform="translate(2.645 2.646)"/><path fill="#1e1e1d" d="M85.836 45.732c.775.524 1.654 1.103 1.868 2.024q.418 1.773-.53 2.844c-1.214 1.373-4.738 1.442-6.5 1.257-1.635-.172-2.987-.836-3.088-2.68q-.174-1.342.919-2.43 1.698-1.687 3.428-2.335.567-.212 1.466.058 1.048.32 2.437 1.262" style="display:inline;stroke-width:.26458" transform="translate(2.645 2.646)"/><path fill="#fff" d="m-138.447 68.984-.603 2.157a1.008 1.01 38 0 0 .092.77l.924 1.63q.505 1.063 1.15 2.026c.199.291.4.728.778.844 1.247.386 3.302.8 3.57 2.138.267 1.326-.744 2.672-2.167 2.693-.842.014-2.04-.518-2.831-.698a.339.35 38 0 0-.25.034q-2.19 1.194-4.029 2.294-.555.334-.666.73-.466 1.667-.755 2.276c-.957 2.043-4.008 1.468-4.06-.812-.017-.72.47-1.662.539-2.46a.997 1.01 38.8 0 0-.037-.369q-.455-1.526-1.326-2.947-.14-.381-.389-.794c-.307-.513-.545-1.077-1.031-1.294-.813-.36-2.342-.444-3.04-1.182-1.046-1.109-.68-3.17.907-3.559q.558-.138 1.68.135 1.024.246 2.072.463l4.434-2.503a.273.28 83.2 0 0 .132-.164l.813-2.643a.786.762 74.1 0 1 .14-.262q1.302-1.556 2.902-.738 1.225.627 1.05 2.235" style="display:inline;fill:#fff;fill-opacity:1;stroke-width:.264583" transform="translate(214.841 -59.002)"/></g></svg>